<svg width="80" height="80" viewBox="0 0 80 80" fill="none" xmlns="http://www.w3.org/2000/svg">
<g clip-path="url(#clip0_345_2399)">
<path d="M42.2743 19.0818L34.6016 25.2594C28.0385 35.4754 24.7874 48.4746 29.793 59.976C3.42782 53.957 20.9006 17.0498 42.2743 19.0818Z" fill="#D36D33"/>
<path d="M36.7784 54.4903C37.5197 53.7531 38.9364 53.1558 39.7082 52.7313C39.7504 52.7079 41.6738 52.204 41.9342 52.1643C42.8466 52.022 44.1391 51.7771 46.3558 51.8517C48.3261 51.9194 51.8681 52.6146 53.7845 53.0719C57.8706 54.0447 61.4102 55.6871 54.4154 58.8226C47.3667 61.9837 41.3783 61.5778 34.6955 58.4236C34.2568 58.216 34.0903 57.6631 34.3694 57.2688" fill="#214D6E"/>
<path d="M63.3945 19.0742C63.8144 22.3333 63.0943 36.093 59.1419 36.1864C57.4248 36.226 54.3755 34.3713 51.4129 34.229C46.0414 33.9747 41.3711 36.0021 37.5829 39.6298C36.6141 40.5583 32.0941 48.0377 30.7617 46.6543C32.0166 39.2075 34.8526 30.6899 40.4634 25.3568C47.2939 18.8666 54.8 20.7306 63.3945 19.0742Z" fill="#7BA440"/>
<path d="M60.5209 40.0076C57.7788 54.4579 53.2845 48.8611 43.7377 49.512C39.5671 49.7966 35.6851 51.824 31.7373 52.8528C37.3528 40.3436 46.8879 34.6512 60.5209 40.0053V40.0076Z" fill="#587D3F"/>
</g>
<defs>
<clipPath id="clip0_345_2399">
<rect width="47" height="42" fill="white" transform="translate(16.5 19)"/>
</clipPath>
</defs>
</svg>
