<svg width="12" height="17" viewBox="0 0 12 17" fill="none" xmlns="http://www.w3.org/2000/svg">
<path d="M6.74062 15.6887C8.34375 13.7549 12 9.06813 12 6.43557C12 3.24275 9.3125 0.652359 6 0.652359C2.6875 0.652359 0 3.24275 0 6.43557C0 9.06813 3.65625 13.7549 5.25938 15.6887C5.64375 16.1495 6.35625 16.1495 6.74062 15.6887ZM6 4.50783C6.53043 4.50783 7.03914 4.71093 7.41421 5.07245C7.78929 5.43397 8 5.9243 8 6.43557C8 6.94683 7.78929 7.43716 7.41421 7.79868C7.03914 8.1602 6.53043 8.3633 6 8.3633C5.46957 8.3633 4.96086 8.1602 4.58579 7.79868C4.21071 7.43716 4 6.94683 4 6.43557C4 5.9243 4.21071 5.43397 4.58579 5.07245C4.96086 4.71093 5.46957 4.50783 6 4.50783Z" fill="#7DC45D"/>
</svg>
