<svg width="15" height="16" viewBox="0 0 15 16" fill="none" xmlns="http://www.w3.org/2000/svg">
<path d="M4.83084 1.34583C4.60527 0.821978 4.01057 0.543154 3.44223 0.692424L0.86422 1.36836C0.354477 1.50355 0 1.94854 0 2.45549C0 9.42326 5.87669 15.073 13.1244 15.073C13.6517 15.073 14.1146 14.7322 14.2552 14.2421L14.9583 11.7637C15.1136 11.2173 14.8236 10.6456 14.2787 10.4287L11.4663 9.30216C10.9888 9.11064 10.4351 9.24301 10.1099 9.62886L8.92636 11.0173C6.86396 10.0795 5.19411 8.47414 4.21856 6.49139L5.66284 5.35638C6.06419 5.04095 6.20187 4.51146 6.00266 4.05239L4.83084 1.34864V1.34583Z" fill="#7DC45D"/>
</svg>
