<svg width="17" height="13" viewBox="0 0 17 13" fill="none" xmlns="http://www.w3.org/2000/svg">
<path d="M15.4062 0.613735C16.2861 0.613735 17 1.30003 17 2.14592C17 2.62793 16.7643 3.0812 16.3625 3.37168L9.1375 8.58112C8.75898 8.85244 8.24102 8.85244 7.8625 8.58112L0.637501 3.37168C0.235743 3.0812 0 2.62793 0 2.14592C0 1.30003 0.713867 0.613735 1.59375 0.613735H15.4062ZM17 4.18884V10.8283C17 11.9551 16.0471 12.8712 14.875 12.8712H2.125C0.95293 12.8712 0 11.9551 0 10.8283V4.18884L7.225 9.39828C7.98203 9.94413 9.01797 9.94413 9.775 9.39828L17 4.18884Z" fill="#7DC45D"/>
</svg>
